<svg width="100" height="100" viewBox="0 0 100 100" fill="none" xmlns="http://www.w3.org/2000/svg">
<path d="M78.55 36.65C80.95 34.65 83.75 32.25 85 29.6C82.95 30.65 80.5 31.3 77.8 31.65C80.3 29.85 82.35 27.5 83.4 24.3C80.8 25.7 78.15 26.9 74.85 27.5C67.1 18.15 48.55 25.75 51.85 39.75C38.8 38.95 30.85 33.05 24.25 25.8C20.5 31.9 23.75 41.15 28.2 43.7C25.9 43.55 24.15 42.85 22.5 42.05C22.7 49.75 26.95 53.45 32.9 55.45C31.1 55.8 29.1 55.9 27.2 55.6C29.05 60.95 32.9 64.3 39.5 65C35 68.8 26.7 71.45 20 70.4C25.75 74.05 32.3 76.95 41.4 76.55C63.45 75.55 78.2 59.75 78.55 36.65V36.65ZM50 0C56.5661 0 63.0679 1.29329 69.1342 3.80602C75.2005 6.31876 80.7124 10.0017 85.3553 14.6447C89.9983 19.2876 93.6812 24.7995 96.194 30.8658C98.7067 36.9321 100 43.4339 100 50C100 63.2608 94.7322 75.9785 85.3553 85.3553C75.9785 94.7322 63.2608 100 50 100C43.4339 100 36.9321 98.7067 30.8658 96.194C24.7995 93.6812 19.2876 89.9983 14.6447 85.3553C5.26784 75.9785 0 63.2608 0 50C0 36.7392 5.26784 24.0215 14.6447 14.6447C24.0215 5.26784 36.7392 0 50 0V0Z" fill="white"/>
</svg>
