<svg width="100" height="100" viewBox="0 0 100 100" fill="none" xmlns="http://www.w3.org/2000/svg">
<path d="M50 29.0766L93.6098 81.4661C93.9613 81.8975 94.3785 82.2385 94.8374 82.4694C95.2963 82.7003 95.7878 82.8166 96.2833 82.8116C96.7788 82.8065 97.2686 82.6801 97.7244 82.4398C98.1801 82.1995 98.5927 81.85 98.9383 81.4115C99.2839 80.973 99.5556 80.4543 99.7377 79.8853C99.9198 79.3163 100.009 78.7084 99.9993 78.0967C99.9899 77.485 99.8823 76.8817 99.6827 76.3217C99.4832 75.7617 99.1957 75.2561 98.8368 74.8341L52.6135 19.3106C51.9138 18.4702 50.9762 18 50 18C49.0238 18 48.0862 18.4702 47.3865 19.3106L1.16316 74.8341C0.804303 75.2561 0.516792 75.7617 0.317252 76.3217C0.117713 76.8817 0.0101145 77.485 0.000681349 78.0967C-0.00875177 78.7084 0.0801662 79.3163 0.262295 79.8853C0.444424 80.4543 0.71614 80.973 1.06173 81.4115C1.40732 81.85 1.81991 82.1995 2.27564 82.4398C2.73136 82.6801 3.22116 82.8065 3.7167 82.8116C4.21224 82.8166 4.70368 82.7003 5.16258 82.4694C5.62147 82.2385 6.03871 81.8975 6.39015 81.4661L50 29.0704V29.0766Z" fill="white"/>
</svg>
