<svg width="100" height="100" viewBox="0 0 100 100" fill="none" xmlns="http://www.w3.org/2000/svg">
<path d="M47.3326 39.1406V26.7187L26.4397 40.625L35.7701 46.8527L47.3326 39.1406ZM75.692 54.5089V45.6027L69.0179 50.0558L75.692 54.5089ZM50 0C22.3884 0 0 22.3884 0 50C0 77.6116 22.3884 100 50 100C77.6116 100 100 77.6116 100 50C100 22.3884 77.6116 0 50 0ZM81.0268 59.4866C81.0268 59.6094 81.0156 59.721 81.0045 59.8326C81.0045 59.8772 80.9933 59.9107 80.9821 59.9442C80.9664 60.0663 80.9364 60.1862 80.8929 60.3013C80.8705 60.3683 80.8482 60.4353 80.8259 60.4911C80.8036 60.5357 80.7813 60.5804 80.7701 60.625C80.7366 60.6808 80.7143 60.7478 80.6808 60.8036C80.6585 60.8482 80.6362 60.8817 80.6027 60.9263C80.5692 60.9821 80.5246 61.0379 80.4911 61.0938C80.4576 61.1384 80.4353 61.1719 80.4018 61.2054C80.3571 61.25 80.3125 61.3058 80.2679 61.3504C80.2344 61.3839 80.2009 61.4174 80.1563 61.4509C80.1116 61.4955 80.0558 61.5402 80 61.5737C79.9554 61.6071 79.9219 61.6406 79.8772 61.6629C79.8661 61.6741 79.8437 61.6853 79.8326 61.6964L51.4732 80.5804C51.0268 80.8817 50.5134 81.0268 50 81.0268C49.4754 81.0268 48.9621 80.8705 48.5156 80.5804L20.1563 61.7076C20.1451 61.6964 20.1228 61.6853 20.1116 61.6741L19.9888 61.5848C19.933 61.5402 19.8884 61.5067 19.8438 61.4621C19.8103 61.4286 19.7768 61.3951 19.7321 61.3616C19.6875 61.317 19.6429 61.2723 19.5982 61.2165C19.5651 61.1821 19.5352 61.1448 19.5089 61.1049C19.4643 61.0491 19.4308 60.9933 19.3973 60.9375C19.375 60.8929 19.3415 60.8594 19.3192 60.8147C19.2857 60.7589 19.2522 60.692 19.2299 60.6362C19.2076 60.5915 19.1853 60.5469 19.1741 60.5022C19.1518 60.4353 19.1295 60.3683 19.1071 60.3125C19.096 60.2679 19.0737 60.2232 19.0625 60.1786C19.0402 60.1004 19.029 60.0335 19.0179 59.9554C19.0067 59.9219 19.0067 59.8772 18.9955 59.8438C18.9844 59.7321 18.9732 59.6094 18.9732 59.4978V40.6138C18.9732 40.5022 18.9844 40.3795 18.9955 40.2679C19.0067 40.2344 19.0067 40.1897 19.0179 40.1562C19.0336 40.0341 19.0636 39.9143 19.1071 39.7991C19.1295 39.7321 19.1518 39.6652 19.1741 39.6094C19.1964 39.5647 19.2188 39.5201 19.2299 39.4754C19.2522 39.4196 19.2857 39.3527 19.3192 39.2969C19.3415 39.2522 19.3638 39.2187 19.3973 39.1741C19.4643 39.0737 19.5313 38.9844 19.5982 38.8951C19.6429 38.8504 19.6875 38.7946 19.7321 38.75C19.7656 38.7165 19.7991 38.683 19.8438 38.6496C19.8884 38.6049 19.9442 38.5603 19.9888 38.5268C20.0335 38.4933 20.067 38.4598 20.1116 38.4375C20.1228 38.4263 20.1451 38.4152 20.1563 38.404L48.5156 19.5312C49.4085 18.9397 50.5804 18.9397 51.4732 19.5312L79.8326 38.404C79.8437 38.4152 79.8661 38.4263 79.8772 38.4375L80 38.5268L80.1563 38.6496C80.1897 38.683 80.2232 38.7165 80.2679 38.75C80.3125 38.7946 80.3571 38.8393 80.4018 38.8951C80.4799 38.9844 80.5469 39.0737 80.6027 39.1741C80.625 39.2187 80.6585 39.2522 80.6808 39.2969C80.7143 39.3527 80.7478 39.4085 80.7701 39.4754C80.7924 39.5201 80.8147 39.5647 80.8259 39.6094C80.8482 39.6763 80.8705 39.7433 80.8929 39.7991C80.904 39.8438 80.9263 39.8884 80.9375 39.933C80.9598 40.0112 80.971 40.0781 80.9821 40.1562C80.9933 40.1897 80.9933 40.2344 81.0045 40.2679C81.0156 40.3795 81.0268 40.5022 81.0268 40.6138V59.4866V59.4866ZM52.6674 60.971V73.3929L73.5603 59.4866L64.2299 53.2589L52.6674 60.971ZM24.308 45.6027V54.5089L30.9821 50.0558L24.308 45.6027ZM50 43.7612L40.5692 50.0558L50 56.3504L59.4308 50.0558L50 43.7612ZM73.5603 40.625L52.6674 26.7187V39.1406L64.2299 46.8527L73.5603 40.625ZM35.7701 53.2589L26.4397 59.4866L47.3326 73.3929V60.971L35.7701 53.2589V53.2589Z" fill="white"/>
</svg>
