<svg width="230" height="125" viewBox="0 0 230 125" fill="none" xmlns="http://www.w3.org/2000/svg">
<path d="M230 0H0V125H230V0Z" fill="white"/>
<path d="M139.89 49.0119V48.7619V40.3115H133.425V48.7619V55.4544H139.89H149.425V49.0119H139.89Z" fill="#73F700"/>
<path d="M86.4416 57.1706C86.4416 60.4796 85.4937 63.7142 83.7179 66.4654C81.9421 69.2167 79.418 71.361 76.4649 72.6273C73.5118 73.8936 70.2623 74.2249 67.1273 73.5793C63.9923 72.9338 61.1126 71.3404 58.8524 69.0007C56.5922 66.6609 55.053 63.6799 54.4294 60.4345C53.8059 57.1892 54.1259 53.8253 55.3491 50.7683C56.5723 47.7113 58.6438 45.0984 61.3015 43.26C63.9592 41.4217 67.0838 40.4405 70.2802 40.4405C74.5663 40.441 78.6767 42.2038 81.7075 45.3412C84.7382 48.4786 86.441 52.7337 86.4416 57.1706Z" fill="#73F700"/>
<path d="M106.808 46.7976C106.808 47.7241 106.543 48.6298 106.045 49.4002C105.548 50.1706 104.841 50.771 104.015 51.1256C103.188 51.4801 102.278 51.5729 101.4 51.3921C100.522 51.2114 99.7159 50.7652 99.083 50.1101C98.4501 49.4549 98.0191 48.6202 97.8445 47.7115C97.6699 46.8028 97.7595 45.8609 98.102 45.0049C98.4445 44.1489 99.0245 43.4173 99.7687 42.9026C100.513 42.3878 101.388 42.1131 102.283 42.1131C103.483 42.1131 104.634 42.6066 105.483 43.4852C106.331 44.3637 106.808 45.5552 106.808 46.7976Z" fill="#F2E0D7"/>
<path d="M122.324 46.7976C122.324 47.7241 122.058 48.6298 121.561 49.4002C121.064 50.1706 120.357 50.771 119.53 51.1256C118.703 51.4801 117.793 51.5729 116.915 51.3921C116.038 51.2114 115.231 50.7652 114.598 50.1101C113.966 49.4549 113.535 48.6202 113.36 47.7115C113.185 46.8028 113.275 45.8609 113.618 45.0049C113.96 44.1489 114.54 43.4173 115.284 42.9026C116.028 42.3878 116.903 42.1131 117.798 42.1131C118.998 42.1131 120.15 42.6066 120.998 43.4852C121.847 44.3637 122.324 45.5552 122.324 46.7976Z" fill="#73F700"/>
<path d="M182.769 63.5298C182.769 65.8451 182.106 68.1084 180.864 70.0335C179.621 71.9586 177.855 73.459 175.789 74.345C173.722 75.2311 171.449 75.4629 169.255 75.0112C167.061 74.5595 165.046 73.4446 163.465 71.8074C161.883 70.1702 160.806 68.0844 160.37 65.8136C159.934 63.5428 160.158 61.189 161.014 59.0499C161.869 56.9109 163.319 55.0826 165.178 53.7963C167.038 52.51 169.224 51.8234 171.461 51.8234C174.46 51.8234 177.337 53.0568 179.457 55.2521C181.578 57.4475 182.769 60.4251 182.769 63.5298Z" fill="#F2E0D7"/>
<path d="M100.067 44.246C99.2823 44.246 98.5148 44.487 97.862 44.9385C97.2093 45.3901 96.7005 46.0318 96.4001 46.7827C96.0996 47.5335 96.021 48.3597 96.1742 49.1568C96.3273 49.9539 96.7054 50.6861 97.2605 51.2608C97.8157 51.8354 98.5229 52.2268 99.2929 52.3853C100.063 52.5439 100.861 52.4625 101.586 52.1515C102.312 51.8405 102.932 51.3138 103.368 50.6381C103.804 49.9623 104.037 49.1679 104.037 48.3552C104.037 47.2654 103.619 46.2202 102.874 45.4496C102.13 44.679 101.12 44.246 100.067 44.246Z" fill="#1E2121"/>
<path d="M138.04 42.2877H131.523V51.1131H127.134V57.4365H131.523V70.1746C131.523 72.664 131.829 74.7017 132.44 76.2877C133.05 77.8737 133.881 79.123 134.931 80.0357C135.999 80.961 137.267 81.6068 138.627 81.9187C139.924 82.2677 141.26 82.4398 142.6 82.4306H147.507V76.4087H143.275C142.593 76.4137 141.913 76.3168 141.258 76.121C140.632 75.934 140.058 75.5937 139.585 75.129C139.059 74.5907 138.665 73.9302 138.435 73.2024C138.128 72.2058 137.985 71.1627 138.013 70.1171V57.4385H147.583V51.1131H138.04V42.2877Z" fill="#1E2121"/>
<path d="M87.4325 61.8314C87.4529 59.043 86.8974 56.2823 85.8034 53.7342C84.7474 51.2745 83.2398 49.0508 81.3643 47.1865C79.4582 45.3035 77.2232 43.8133 74.7787 42.7957C69.6088 40.668 63.8486 40.668 58.6787 42.7957C56.2415 43.8131 54.0146 45.3035 52.1179 47.1865C50.2501 49.0541 48.7481 51.2773 47.6943 53.7342C46.6197 56.2839 46.0651 59.0357 46.0651 61.8175C46.0651 64.5993 46.6197 67.3511 47.6943 69.9008C48.7486 72.3644 50.2504 74.5954 52.1179 76.4723C56.0457 80.3788 61.2915 82.5437 66.7383 82.506C68.6562 82.5166 70.5669 82.261 72.4193 81.7461C74.206 81.2406 75.9203 80.4927 77.5176 79.5219L81.4966 83.6766C81.8051 83.9974 82.1715 84.2521 82.5751 84.4262C82.9786 84.6004 83.4114 84.6905 83.8486 84.6915C84.2858 84.6926 84.7189 84.6044 85.1232 84.4321C85.5275 84.2599 85.8951 84.0069 86.2049 83.6876C86.5147 83.3682 86.7608 82.9889 86.929 82.5711C87.0972 82.1534 87.1843 81.7054 87.1853 81.2528C87.1863 80.8002 87.1011 80.3519 86.9347 79.9333C86.7683 79.5148 86.5239 79.1343 86.2154 78.8135L82.6293 75.1012C84.1294 73.2976 85.3214 71.2423 86.1541 69.0239C87.0141 66.7346 87.4478 64.2975 87.4325 61.8413V61.8314ZM79.371 67.5556C78.6989 69.2563 77.7098 70.8033 76.4601 72.1082C75.2104 73.4131 73.7247 74.4504 72.0877 75.1608C70.3901 75.9033 68.5638 76.2787 66.721 76.2639C64.8926 76.2773 63.081 75.9018 61.3984 75.1608C59.776 74.4471 58.3024 73.4148 57.0591 72.1211C54.4678 69.3776 53.0169 65.6931 53.0169 61.8562C53.0169 58.0192 54.4678 54.3347 57.0591 51.5913C58.3025 50.2982 59.7761 49.2666 61.3984 48.5536C63.0808 47.8119 64.8924 47.4357 66.721 47.4484C68.5268 47.4356 70.3171 47.7949 71.9874 48.5055C73.6578 49.2161 75.1748 50.2637 76.45 51.5873C77.7026 52.9029 78.6949 54.4592 79.371 56.1687C80.7944 59.8199 80.7944 63.9004 79.371 67.5516" fill="#1E2121"/>
<path d="M178.334 52.9107L177.951 56.0635C177.377 55.4957 176.759 54.9774 176.103 54.5139C175.387 54.0077 174.624 53.5776 173.824 53.2302C172.971 52.8588 172.087 52.5692 171.183 52.3651C170.199 52.1455 169.196 52.0377 168.189 52.0436C166.105 52.015 164.037 52.4233 162.11 53.244C160.351 53.9987 158.756 55.109 157.418 56.5099C156.108 57.8987 155.082 59.5457 154.399 61.3532C152.973 65.1707 152.978 69.4022 154.412 73.2163C155.101 75.0197 156.127 76.6648 157.431 78.0575C158.761 79.4588 160.353 80.5652 162.11 81.3095C164.03 82.1213 166.088 82.5261 168.162 82.5C169.169 82.5044 170.174 82.3953 171.158 82.1746C172.063 81.9731 172.947 81.6835 173.799 81.3095C174.595 80.9593 175.358 80.5343 176.078 80.0397C176.752 79.5783 177.384 79.055 177.966 78.4762L178.35 81.631H183.942V52.9107H178.334ZM176.993 71.0655C176.551 72.17 175.906 73.1749 175.093 74.0238C174.288 74.8555 173.329 75.5108 172.274 75.9504C170.048 76.8632 167.57 76.8632 165.345 75.9504C164.287 75.509 163.325 74.8541 162.514 74.0238C161.689 73.1745 161.037 72.1624 160.597 71.0476C159.668 68.6222 159.661 65.9225 160.578 63.4921C161.015 62.3917 161.656 61.3912 162.466 60.5476C163.271 59.7162 164.229 59.061 165.284 58.621C166.389 58.1604 167.571 57.9279 168.762 57.9365C171.117 57.9158 173.384 58.8585 175.07 60.5595C175.893 61.3978 176.545 62.3992 176.987 63.504C177.463 64.6949 177.701 65.9732 177.686 67.2619C177.703 68.5677 177.465 69.8636 176.985 71.0714" fill="#1E2121"/>
<path d="M103.262 57.0555H96.8683V81.6627H103.262V57.0555Z" fill="#1E2121"/>
<path d="M119.182 57.0555H112.788V81.6627H119.182V57.0555Z" fill="#1E2121"/>
<path d="M115.985 44.246C115.2 44.246 114.433 44.487 113.78 44.9385C113.127 45.3901 112.618 46.0318 112.318 46.7827C112.017 47.5335 111.939 48.3597 112.092 49.1568C112.245 49.9539 112.623 50.6861 113.178 51.2608C113.733 51.8354 114.441 52.2268 115.211 52.3853C115.981 52.5439 116.779 52.4625 117.504 52.1515C118.229 51.8405 118.849 51.3138 119.285 50.6381C119.722 49.9623 119.954 49.1679 119.954 48.3552C119.954 47.2654 119.536 46.2202 118.792 45.4496C118.047 44.679 117.038 44.246 115.985 44.246Z" fill="#1E2121"/>
</svg>
