<svg width="100" height="98" viewBox="0 0 100 98" fill="none" xmlns="http://www.w3.org/2000/svg">
<g clip-path="url(#clip0)">
<path fill-rule="evenodd" clip-rule="evenodd" d="M50.1321 0.165161C38.2943 0.173295 26.8453 4.39164 17.8321 12.066C8.81889 19.7404 2.82913 30.3704 0.933739 42.0555C-0.961651 53.7406 1.36091 65.7189 7.48617 75.8488C13.6114 85.9787 23.14 93.5997 34.3683 97.3493C36.8456 97.8117 37.7787 96.2676 37.7787 94.9463C37.7787 93.7655 37.7292 89.8349 37.7126 85.6647C23.8398 88.687 20.9084 79.7853 20.9084 79.7853C18.6375 74.005 15.3757 72.4856 15.3757 72.4856C10.8506 69.3642 15.6895 69.455 15.6895 69.455C20.6937 69.8101 23.3361 74.5913 23.3361 74.5913C27.7787 82.2213 34.9959 80.0165 37.8448 78.7201C38.0703 76.1926 39.192 73.8291 41.0074 72.0562C29.934 70.7927 18.2907 66.5153 18.2907 47.4071C18.2207 42.4537 20.06 37.6635 23.4269 34.0297C22.915 32.7663 21.2056 27.6961 23.9141 20.8175C23.9141 20.8175 28.1008 19.4798 37.6301 25.929C45.8037 23.6938 54.4275 23.6938 62.6012 25.929C72.1222 19.4798 76.3006 20.8175 76.3006 20.8175C79.0174 27.6879 77.308 32.7581 76.7878 34.0297C80.1614 37.6593 82.0017 42.4524 81.924 47.4071C81.924 66.5648 70.256 70.7762 59.1495 72.0149C60.9414 73.5591 62.5351 76.5979 62.5351 81.2469C62.5351 87.9191 62.4773 93.2948 62.4773 94.9298C62.4773 96.2593 63.3774 97.82 65.9042 97.3245C77.115 93.5614 86.6239 85.9373 92.7343 75.8128C98.8447 65.6883 101.159 53.722 99.2641 42.0493C97.3692 30.3766 91.3886 19.7569 82.3893 12.0852C73.39 4.41342 61.9576 0.188809 50.1321 0.165161V0.165161Z" fill="white"/>
<path d="M19.1578 71.7589C19.0617 71.8796 18.9255 71.9618 18.774 71.9906C18.6225 72.0194 18.4656 71.9928 18.332 71.9158C17.9687 71.7506 17.7705 71.412 17.8861 71.1643C18.0017 70.9166 18.3815 70.8423 18.7119 71.0074C19.0422 71.1726 19.2816 71.5111 19.1578 71.7589Z" fill="#1A1414"/>
<path d="M21.1727 74.0132C20.9414 74.2362 20.4708 74.1371 20.157 73.782C19.8432 73.4269 19.7689 72.9563 20.0083 72.7498C20.2478 72.5434 20.7102 72.6342 21.0323 72.981C21.3543 73.3279 21.4204 73.8068 21.1727 74.0132Z" fill="#1A1414"/>
<path d="M23.1214 76.8868C22.8159 77.1015 22.2956 76.8868 22.0149 76.4574C21.7341 76.028 21.7093 75.483 22.0149 75.2683C22.3204 75.0536 22.8406 75.2683 23.1297 75.6895C23.4187 76.1106 23.4352 76.6721 23.1297 76.8868H23.1214Z" fill="#1A1414"/>
<path d="M25.8381 79.6614C25.5656 79.967 25.0124 79.8844 24.5499 79.4715C24.0875 79.0586 23.9967 78.4971 24.2692 78.1998C24.5417 77.9025 25.1362 77.9769 25.5656 78.3898C25.995 78.8026 26.1271 79.3641 25.8381 79.6614Z" fill="#1A1414"/>
<path d="M29.5542 81.2717C29.4303 81.6598 28.8688 81.8415 28.3073 81.6763C27.7457 81.5111 27.3741 81.0487 27.4815 80.6524C27.5888 80.256 28.1586 80.0743 28.7284 80.2477C29.2982 80.4211 29.6615 80.8753 29.5542 81.2717Z" fill="#1A1414"/>
<path d="M33.6334 81.5689C33.6334 81.9818 33.171 82.3204 32.5764 82.3286C31.9819 82.3369 31.4947 82.0148 31.4864 81.6102C31.4782 81.2056 31.9571 80.8505 32.5517 80.8423C33.1462 80.834 33.6334 81.1643 33.6334 81.5689Z" fill="#1A1414"/>
<path d="M37.4319 80.9249C37.4979 81.3295 37.0851 81.7506 36.4988 81.8497C35.9125 81.9488 35.384 81.7094 35.3097 81.3047C35.2353 80.9001 35.6565 80.479 36.2345 80.3799C36.8126 80.2808 37.3576 80.5203 37.4319 80.9249Z" fill="#1A1414"/>
</g>
<defs>
<clipPath id="clip0">
<path d="M0 0H100V97.4319H0V0Z" fill="white"/>
</clipPath>
</defs>
</svg>
